<svg width="338" height="60" xmlns="http://www.w3.org/2000/svg" xmlns:xlink="http://www.w3.org/1999/xlink" xml:space="preserve" overflow="hidden"><defs><clipPath id="clip0"><rect x="13" y="13" width="338" height="60"/></clipPath></defs><g clip-path="url(#clip0)" transform="translate(-13 -13)"><path d="M49.41 48.2386C67.7829 48.2386 84.4886 52.1643 96.9229 58.5714 87.1443 49.7643 69.5243 43.8857 49.41 43.8857 29.2943 43.8857 11.6743 49.7643 1.89571 58.5714 14.3329 52.1643 31.0371 48.2386 49.41 48.2386Z" fill="#95C13D" transform="matrix(1.00254 0 0 1 13 13)"/><path d="M58.0957 44.2614C58.0743 44.2571 58.0529 44.2557 58.03 44.2557 58.0271 44.2914 58.0243 44.33 58.0214 44.3671 58.0457 44.3343 58.0714 44.2971 58.0957 44.2614Z" fill="#39A9E0" transform="matrix(1.00254 0 0 1 13 13)"/><path d="M55.86 43.9457C55.8557 43.9957 55.8543 44.0414 55.8529 44.0929 56.5814 44.14 57.31 44.1929 58.03 44.2571 58.1543 42.9586 58.1714 41.8243 58.1014 40.8114 57.2329 42.7586 56.4014 44.5314 55.86 43.9457Z" fill="#39A9E0" transform="matrix(1.00254 0 0 1 13 13)"/><path d="M38.9286 43.2986C38.9286 43.2986 38.8686 43.7557 38.7943 44.4471 39.6071 44.36 40.4243 44.2857 41.2471 44.2186 42.2457 34.5486 46.15 38.9643 47.9414 42.4514 48.15 42.8529 48.3914 43.3457 48.6657 43.8929 48.9129 43.8914 49.16 43.8871 49.41 43.8871 50.1114 43.8871 50.81 43.8971 51.5086 43.91 50.8414 42.4114 50.1629 40.8743 49.5271 39.7729 47.35 35.9829 39.5414 32.3171 38.9286 43.2986Z" fill="#39A9E0" transform="matrix(1.00254 0 0 1 13 13)"/><path d="M24.22 8.98857C31.0786 4.45 36.7571 7.17143 36.7571 7.17143 36.7571 7.17143 30.2329 2.33714 21.7171 8.15143 13.2043 13.9614 20.6257 21.0986 26.0029 26.8643 31.38 32.6257 26.9043 37.9386 30.4229 45.3357 30.4786 45.4543 30.5357 45.5714 30.5914 45.6886 31.1629 45.5771 31.7371 45.4671 32.3171 45.3643 31.0643 42.2 30.9329 39.5871 30.7386 34.74 30.4657 27.9814 27.64 25.9029 25.2886 22.98 22.9357 20.0557 17.36 13.5314 24.22 8.98857Z" fill="#39A9E0" transform="matrix(1.00254 0 0 1 13 13)"/><path d="M42.9229 7.20857C47.5129 1.96429 51.2371 4.81857 51.9443 8.29571 52.6529 11.7743 54.6029 18.4814 53.6871 8.12286 52.7743-2.23714 45.1343 1.60143 41.82 5.26857 38.5071 8.93429 37.1743 11.4429 33.0614 13.1871 33.0614 13.1857 38.3329 12.4529 42.9229 7.20857Z" fill="#39A9E0" transform="matrix(1.00254 0 0 1 13 13)"/><path d="M66.89 40.1714C66.4671 32.5843 61.0714 35.1171 59.5671 37.7343 59.0986 38.5486 58.5943 39.7086 58.1014 40.81 58.1714 41.8229 58.1557 42.9571 58.03 44.2557 58.0529 44.2557 58.0743 44.2571 58.0957 44.2614 59.1386 42.7414 60.0986 40.68 60.6629 39.5857 62.0557 36.8686 65.3129 33.3243 65.4471 43.8629 65.4529 44.3471 65.4743 44.7786 65.4971 45.1857 66.0757 45.2829 66.6486 45.3843 67.2186 45.4914 67.1957 45.2557 67.19 45.0057 67.2014 44.7671 67.2757 43.1686 66.89 40.1714 66.89 40.1714Z" fill="#39A9E0" transform="matrix(1.00254 0 0 1 13 13)"/><path d="M78.7814 15.89C72.8986 11.8729 68.3914 15.2143 68.3914 15.2143 68.3914 15.2143 72.3129 13.3343 77.0514 16.47 81.7886 19.6071 77.9386 24.1143 76.3143 26.1329 74.6886 28.1529 72.7357 29.5886 72.5486 34.2586 72.3586 38.9286 72.2672 40.5971 70.0171 44.4857 69.6814 45.0714 69.3771 45.5229 69.1071 45.86 69.4971 45.9429 69.8829 46.0271 70.27 46.1157 71.1829 44.7157 72.07 43.0414 72.7643 41.5771 75.1971 36.4671 72.1057 32.7971 75.82 28.8157 79.5343 24.8343 84.6629 19.9043 78.7814 15.89Z" fill="#39A9E0" transform="matrix(1.00254 0 0 1 13 13)"/><path d="M57.6229 30.7157C58.81 26.9543 57.0343 22.45 57.0343 22.45 57.0343 22.45 56.9714 21.3743 56.8857 27.7629 56.85 30.2029 56.1914 31.7014 55.4743 33.09 54.4257 31.0671 53.4571 28.8943 53.41 25.3357 53.2814 16.0871 53.19 17.6429 53.19 17.6429 53.19 17.6429 50.6229 24.1629 52.3414 29.6086 52.9629 31.5786 53.7571 33.3257 54.44 35.1629 54.7643 36.0257 55.0543 36.9143 55.2943 37.85 55.7514 39.62 56.0057 41.5829 55.86 43.9457 56.4014 44.5314 57.2329 42.7586 58.1014 40.8114 57.91 38.0714 57.0986 36.2243 56.2 34.4814 56.6657 33.2371 57.2043 32.05 57.6229 30.7157Z" fill="#39A9E0" transform="matrix(1.00254 0 0 1 13 13)"/><path d="M57.8986 15.9914C58.3857 13.5871 60.9586 11.6171 64.1314 15.24 67.3014 18.8614 70.9429 19.37 70.9429 19.37 68.1014 18.1671 67.1814 16.4329 64.8929 13.9 62.6029 11.3671 57.3257 8.71571 56.6929 15.8714 56.0614 23.0257 57.41 18.3929 57.8986 15.9914Z" fill="#39A9E0" transform="matrix(1.00254 0 0 1 13 13)"/><path d="M118.07 26.4486C118.07 30.3614 117.207 34.03 115.483 37.4529 113.346 41.6214 110.513 43.7071 106.989 43.7071 105.7 43.7071 104.49 43.2571 103.36 42.3557 102.919 42.9214 102.637 43.2057 102.51 43.2057 102.226 43.2057 101.941 43.1157 101.66 42.9371 101.299 41.9314 101.12 40 101.12 37.1429 101.12 34.98 101.157 31.77 101.236 27.51 101.314 23.2514 101.351 20.0271 101.351 17.8386 101.351 17.7871 101.351 17.69 101.351 17.5471 101.351 17.4071 101.351 17.2971 101.351 17.22 101.351 16.6543 101.661 16.37 102.279 16.37 102.586 16.37 102.919 16.4943 103.281 16.7371 103.64 16.9829 103.821 17.2457 103.821 17.53 103.821 17.84 103.731 18.2186 103.551 18.6686 103.373 19.12 103.283 19.4871 103.283 19.77 103.283 20.6957 103.283 21.1986 103.283 21.2771 103.59 21.0971 104.039 20.4671 104.629 19.3857 105.22 18.3029 105.823 17.5071 106.44 16.9914 107.39 16.1671 108.61 15.7557 110.1 15.7557 112.873 15.7557 114.951 16.9014 116.339 19.1914 117.491 21.0686 118.07 23.4871 118.07 26.4486ZM115.791 26.2557C115.791 23.9129 115.456 21.97 114.787 20.4257 113.886 18.2629 112.419 17.1814 110.386 17.1814 108.944 17.1814 107.514 18.0686 106.1 19.8443 104.94 21.3129 104.131 22.87 103.669 24.5171 103.257 26.01 103.05 27.6057 103.05 29.3057L103.05 37.2986C103.05 38.51 103.373 39.55 104.016 40.4243 104.734 41.4043 105.687 41.8914 106.871 41.8914 108.931 41.8914 110.771 40.81 112.393 38.6486 113.759 36.8729 114.684 34.8386 115.173 32.5471 115.586 30.5143 115.791 28.4171 115.791 26.2557Z" fill="#39A9E0" transform="matrix(1.00254 0 0 1 13 13)"/><path d="M131.504 38.8029C131.504 39.9357 130.746 40.9529 129.227 41.8543 127.861 42.6771 126.576 43.0886 125.366 43.0886 121.917 43.0886 120.193 40.9014 120.193 36.5243 120.193 34.5929 120.54 32.5229 121.236 30.3071 122.16 27.4243 123.346 25.9843 124.787 25.9843 126.02 25.9843 127.374 26.6086 128.841 27.8571 130.307 29.1057 131.041 30.3471 131.041 31.5829 131.041 33.1786 130.397 34.5686 129.11 35.7529 127.823 36.9371 126.37 37.5286 124.746 37.5286 124.593 37.5286 124.263 37.4 123.763 37.1414 123.26 36.8843 122.919 36.7557 122.74 36.7557 122.407 36.7557 122.237 36.8586 122.237 37.0629 122.237 40.0243 123.216 41.5029 125.17 41.5029 126.176 41.5029 127.101 41.17 127.95 40.4986 128.466 40.1129 129.031 39.51 129.649 38.6843 130.14 38.0414 130.46 37.72 130.614 37.72 131.21 37.7229 131.504 38.0829 131.504 38.8029ZM128.843 31.6986C128.843 30.7986 128.584 29.9543 128.069 29.1686 127.554 28.3843 126.873 27.9914 126.021 27.9914 124.994 27.9914 124.157 28.6343 123.513 29.9229 122.973 31.0029 122.701 32.1229 122.701 33.2829 122.701 34.0286 122.941 34.6529 123.419 35.1557 123.893 35.6571 124.504 35.9086 125.25 35.9086 126.306 35.9086 127.181 35.4586 127.877 34.5571 128.519 33.7314 128.843 32.7786 128.843 31.6986Z" fill="#39A9E0" transform="matrix(1.00254 0 0 1 13 13)"/><path d="M145.48 42.82C145.334 43.1014 145.129 43.2443 144.861 43.2443 144.593 43.2443 144.157 43.0629 143.549 42.7029L143.549 42.3943C143.549 42.1629 143.549 41.8157 143.549 41.3514 143.549 40.89 143.549 40.5543 143.549 40.35 143.549 31.8029 142.486 27.5286 140.36 27.5286 139.693 27.5286 138.977 28.02 138.209 28.9971 136.26 31.4157 135.287 34.4657 135.287 38.1457 135.287 38.6371 135.357 39.35 135.5 40.2886 135.641 41.2286 135.71 41.9443 135.71 42.4314 135.71 42.8186 135.449 43.0114 134.926 43.0114 133.931 43.0114 133.433 42.2 133.433 40.5786L133.433 31.8143C133.433 31.5843 133.446 31.2486 133.47 30.8129 133.496 30.3743 133.51 30.04 133.51 29.8086 133.51 29.4743 133.464 28.9857 133.374 28.3414 133.284 27.6986 133.237 27.2229 133.237 26.9129 133.237 26.7057 133.399 26.4686 133.72 26.1986 134.043 25.93 134.293 25.7929 134.474 25.7929 134.806 25.7929 135.114 25.9743 135.399 26.3343 135.32 28.0086 135.283 28.9857 135.283 29.2686 135.283 29.6557 135.296 30.0271 135.32 30.3886 135.553 30.31 135.86 29.8857 136.247 29.1143 136.734 28.1357 137.147 27.4671 137.483 27.1071 138.1 26.3857 138.809 26.0243 139.604 26.0243 139.914 26.0243 140.379 26.1414 140.994 26.3729 142.386 26.8871 143.376 27.7371 143.969 28.92 144.971 30.9529 145.474 33.6443 145.474 36.9886L145.474 42.82Z" fill="#39A9E0" transform="matrix(1.00254 0 0 1 13 13)"/><path d="M154.44 30.4629C154.233 30.6171 153.746 30.7471 152.974 30.85 152.124 30.9514 151.634 31.0429 151.507 31.1186 151.481 31.4029 151.47 32.8314 151.47 35.4043 151.47 37.4129 151.496 38.7643 151.546 39.46 151.546 39.7429 151.611 40.1943 151.74 40.81 151.869 41.4286 151.934 41.9057 151.934 42.2386 151.934 42.4457 151.803 42.65 151.547 42.8571 151.29 43.0629 151.059 43.1657 150.854 43.1657 150.339 43.1657 149.927 42.6386 149.617 41.5843 149.411 40.8114 149.309 40.0771 149.309 39.3843 149.309 35.7543 149.309 33.0771 149.309 31.3529 149.159 31.2243 148.581 31.2243 147.579 31.3529 146.776 31.4557 146.374 31.1586 146.374 30.4643 146.374 29.4857 147.417 29.0371 149.5 29.1143L150 22.1243C150 22.0457 149.967 21.9229 149.901 21.7571 149.839 21.59 149.807 21.4657 149.807 21.3886 149.807 21.2357 149.91 21.0871 150.117 20.9443 150.323 20.8029 150.566 20.7443 150.851 20.77 151.751 20.8486 152.2 21.2986 152.2 22.1229 152.2 22.7657 152.11 23.7314 151.931 25.0171 151.75 26.3043 151.66 27.2557 151.66 27.8743 151.66 28.1843 151.686 28.4786 151.739 28.7629L153.861 28.6457C154.581 28.6457 154.943 28.93 154.943 29.4957 154.941 29.9114 154.773 30.2314 154.44 30.4629Z" fill="#39A9E0" transform="matrix(1.00254 0 0 1 13 13)"/><path d="M166.793 43.7457C166.793 44.1043 166.51 44.2857 165.943 44.2857 165.324 44.2857 164.954 44.0271 164.826 43.5143 164.797 43.4357 164.786 42.9357 164.786 42.0071 164.786 41.75 164.749 41.5443 164.67 41.3886 163.23 42.4443 161.67 42.9714 159.999 42.9714 158.84 42.9714 157.719 42.6486 156.637 42.0057 155.404 41.2843 154.784 40.3843 154.784 39.3029 154.784 38.2486 155.519 37.2171 156.987 36.2129 158.324 35.2871 159.559 34.8243 160.693 34.8243L164.516 34.8243C164.669 34.67 164.747 34.3986 164.747 34.0129 164.747 32.29 164.603 30.9886 164.321 30.1143 163.86 28.6471 162.944 27.9143 161.58 27.9143 160.601 27.9143 159.703 28.5314 158.877 29.7671 158.131 30.9 157.759 31.9814 157.759 33.0114 157.759 33.0629 157.759 33.14 157.759 33.2429 157.759 33.3457 157.759 33.41 157.759 33.4371 157.759 33.6429 157.656 33.7443 157.449 33.7443 157.19 33.7443 156.909 33.5914 156.599 33.2829 156.29 32.9729 156.137 32.7029 156.137 32.4729 156.137 31.7514 156.353 30.8443 156.793 29.75 157.23 28.6571 157.706 27.8257 158.22 27.26 158.864 26.5657 159.661 26.2186 160.614 26.2186 162.081 26.2186 163.434 26.6814 164.669 27.6086 165.981 28.6129 166.653 29.8243 166.677 31.2386L166.793 43.7457ZM164.749 37.6057C164.749 36.5771 163.949 36.0614 162.356 36.0614 161.093 36.0614 159.984 36.28 159.034 36.7186 157.823 37.2843 157.219 38.1329 157.219 39.2657 157.219 39.96 157.541 40.5 158.184 40.8886 158.726 41.2229 159.369 41.39 160.116 41.39 161.221 41.39 162.27 41.03 163.263 40.31 164.253 39.5886 164.749 38.6871 164.749 37.6057Z" fill="#39A9E0" transform="matrix(1.00254 0 0 1 13 13)"/><path d="M172.394 42.2386C172.394 42.9086 172.031 43.2429 171.313 43.2429 170.179 43.2429 169.626 40.9129 169.651 36.2529L169.767 18.9171C169.767 18.6357 169.73 18.23 169.651 17.7 169.573 17.1743 169.536 16.78 169.536 16.5229 170.024 16.1629 170.436 15.9829 170.773 15.9829 171.131 15.9829 171.491 16.1129 171.853 16.3686 172.213 16.6271 172.394 16.9357 172.394 17.2957 172.394 17.5543 172.329 17.8871 172.2 18.2986 172.044 18.8129 171.954 19.1357 171.93 19.2643 171.62 21.0157 171.467 23.4614 171.467 26.6 171.467 31.6729 171.454 34.1186 171.43 33.9371 171.506 37.1029 171.711 39.4857 172.046 41.08 172.046 41.1586 172.104 41.3314 172.223 41.6014 172.336 41.8729 172.394 42.0857 172.394 42.2386Z" fill="#39A9E0" transform="matrix(1.00254 0 0 1 13 13)"/><path d="M203.473 24.8257C203.473 27.8914 203.061 31.2243 202.237 34.8271 201.08 39.7943 199.523 42.2786 197.566 42.2786 196.149 42.2786 195.107 41.3386 194.44 39.46 193.974 38.2243 193.629 36.3057 193.397 33.7071 193.137 30.9514 192.947 29.3314 192.817 28.8429 192.741 29.1514 192.226 31.4686 191.273 35.7929 190.243 40.58 189.034 42.9729 187.643 42.9729 186.871 42.9729 186.15 42.6129 185.481 41.8914 184.45 40.7857 183.679 37.2843 183.164 31.3886 182.83 27.3743 182.663 23.3071 182.663 19.1886 182.663 17.6186 183.254 16.8343 184.437 16.8343 184.876 16.8343 185.403 17.0014 186.02 17.3357L186.02 18.3786C185.636 18.4557 185.37 18.6029 185.229 18.8229 185.087 19.0429 184.99 19.46 184.94 20.0786 184.914 20.54 184.914 21.1471 184.94 21.8929L184.977 23.36C184.977 26.5771 185.144 29.7957 185.48 33.0129 185.969 37.7486 186.69 40.1171 187.641 40.1171 188.133 40.1171 188.697 39.1386 189.34 37.1814 189.803 35.8443 190.151 34.5829 190.383 33.4 191.307 28.92 191.774 25.2143 191.774 22.28 191.774 22.1014 191.94 21.8814 192.274 21.6229 192.609 21.3657 192.867 21.2371 193.049 21.2371 193.59 21.2371 194.109 21.4371 194.613 21.8343 195.113 22.2343 195.377 22.6914 195.404 23.2057 194.94 23.9514 194.709 25.1371 194.709 26.7571 194.709 29.2271 194.877 31.7643 195.213 34.3629 195.727 38.1214 196.487 40 197.49 40 198.88 40 199.999 37.7229 200.849 33.1671 201.469 29.8471 201.776 26.9257 201.776 24.4014 201.776 22.9871 201.647 21.8671 201.389 21.0429 201.181 20.5014 200.976 19.9471 200.771 19.3829 200.513 18.6886 200.384 18.1471 200.384 17.76 200.384 16.3957 200.73 15.7129 201.426 15.7129 202.146 15.7129 202.701 17.0129 203.086 19.6114 203.341 21.4157 203.473 23.1529 203.473 24.8257Z" fill="#39A9E0" transform="matrix(1.00254 0 0 1 13 13)"/><path d="M217.837 35.02C217.837 37.2343 217.346 39.1643 216.369 40.8114 215.213 42.7943 213.603 43.7857 211.543 43.7857 209.459 43.7857 207.9 42.9743 206.871 41.3514 206.021 40.0143 205.597 38.2371 205.597 36.0243 205.597 33.8357 206.084 31.6871 207.064 29.5757 208.299 26.9757 209.87 25.6771 211.774 25.6771 212.263 25.6771 212.956 25.96 213.859 26.5271 216.511 28.1743 217.837 31.0029 217.837 35.02ZM215.984 34.98C215.984 33.3343 215.766 31.8529 215.327 30.5414 214.684 28.7143 213.69 27.8 212.354 27.8 210.811 27.8 209.599 28.8171 208.724 30.85 208.056 32.4214 207.721 34.1057 207.721 35.9086 207.721 37.53 207.953 38.8943 208.416 40 209.084 41.5186 210.127 42.2786 211.541 42.2786 213.087 42.2786 214.259 41.4043 215.056 39.6529 215.674 38.2886 215.984 36.7314 215.984 34.98Z" fill="#39A9E0" transform="matrix(1.00254 0 0 1 13 13)"/><path d="M228.337 28.8814C228.337 28.9843 228.324 29.2029 228.3 29.5371 227.964 30.0514 227.641 30.3086 227.336 30.3086 227.127 30.3086 226.949 30.18 226.794 29.9229 226.716 28.3 226.046 27.49 224.787 27.49 223.963 27.49 223.15 29.0086 222.353 32.0457 222.044 33.1529 221.891 34.6329 221.891 36.4857 221.891 38.8529 221.954 40.3086 222.086 40.8486 222.111 40.9257 222.174 41.0857 222.277 41.3314 222.379 41.5771 222.431 41.7629 222.431 41.8914 222.431 42.4571 222.044 42.7414 221.273 42.7414 220.399 42.7414 219.96 42.2914 219.96 41.39 219.96 41.2614 219.993 41.0743 220.056 40.83 220.12 40.5857 220.153 40.3986 220.153 40.27 220.153 38.8543 220.087 36.73 219.959 33.8986 219.827 31.0686 219.764 28.9443 219.764 27.5271 219.764 27.0143 219.854 26.6986 220.036 26.5829 220.214 26.4671 220.561 26.41 221.077 26.41 221.72 26.41 222.096 26.64 222.197 27.1043 222.224 27.6171 222.249 28.1214 222.274 28.61 222.946 27.58 223.329 27.0014 223.433 26.8714 223.999 26.23 224.593 25.9057 225.21 25.9057 225.673 25.9057 226.134 26.0486 226.6 26.3314 226.857 26.4857 227.211 26.8857 227.661 27.5271 228.111 28.1743 228.337 28.6229 228.337 28.8814Z" fill="#39A9E0" transform="matrix(1.00254 0 0 1 13 13)"/><path d="M233.127 42.2386C233.127 42.9086 232.764 43.2429 232.046 43.2429 230.913 43.2429 230.359 40.9129 230.384 36.2529L230.5 18.9171C230.5 18.6357 230.463 18.23 230.384 17.7 230.306 17.1743 230.269 16.78 230.269 16.5229 230.757 16.1629 231.169 15.9829 231.506 15.9829 231.864 15.9829 232.224 16.1129 232.587 16.3686 232.946 16.6271 233.127 16.9357 233.127 17.2957 233.127 17.5543 233.061 17.8871 232.933 18.2986 232.777 18.8129 232.687 19.1357 232.663 19.2643 232.353 21.0157 232.2 23.4614 232.2 26.6 232.2 31.6729 232.187 34.1186 232.163 33.9371 232.239 37.1029 232.444 39.4857 232.779 41.08 232.779 41.1586 232.837 41.3314 232.956 41.6014 233.069 41.8729 233.127 42.0857 233.127 42.2386Z" fill="#39A9E0" transform="matrix(1.00254 0 0 1 13 13)"/><path d="M247.294 18.0714C247.294 18.6643 247.216 19.4243 247.063 20.3529 246.881 21.5657 246.766 22.3257 246.716 22.6343 246.637 23.4343 246.51 26.09 246.329 30.5986 246.176 34.7243 246.097 37.0043 246.097 37.4429 246.097 40.2014 246.341 42.1471 246.831 43.2814 246.65 43.5643 246.42 43.7071 246.136 43.7071 245.879 43.7071 245.59 43.5771 245.27 43.32 244.947 43.0614 244.747 42.8057 244.671 42.5486 244.671 42.0343 244.593 41.2486 244.437 40.1943 242.92 42.1243 241.466 43.0886 240.076 43.0886 238.401 43.0886 237.114 42.4586 236.214 41.1971 235.443 40.1157 235.056 38.6871 235.056 36.9114 235.056 34.7486 235.454 32.51 236.251 30.1929 237.283 27.1571 238.646 25.6386 240.344 25.6386 241.066 25.6386 241.8 25.9071 242.546 26.4486 242.699 26.5514 243.304 27.0914 244.361 28.0714 244.619 26.3157 244.747 22.4671 244.747 16.5271 244.927 16.3457 245.171 16.2557 245.481 16.2557 245.971 16.2557 246.397 16.4371 246.756 16.7986 247.113 17.1571 247.294 17.5843 247.294 18.0714ZM244.399 32.3543C244.399 31.2229 244.141 30.2057 243.627 29.3043 243.009 28.2229 242.171 27.6814 241.119 27.6814 239.829 27.6814 238.801 28.9957 238.029 31.6214 237.41 33.6029 237.103 35.4686 237.103 37.2186 237.103 38.3529 237.283 39.3314 237.643 40.1543 238.133 41.2357 238.864 41.7757 239.844 41.7757 241.439 41.7757 242.65 40.54 243.471 38.0686 244.089 36.2929 244.399 34.3886 244.399 32.3543Z" fill="#39A9E0" transform="matrix(1.00254 0 0 1 13 13)"/><path d="M280.499 16.95C280.499 17.1814 280.401 17.4 280.207 17.6057 280.016 17.8143 279.843 18.0114 279.687 18.2057 279.534 18.3971 279.457 18.79 279.457 19.3829 279.483 20.2057 279.483 20.63 279.457 20.6557 278.813 26.1643 278.491 31.3129 278.491 36.1014 278.491 38.6257 278.491 39.8457 278.491 39.7686 278.594 41.5957 278.979 42.6257 279.65 42.8571L279.65 43.2443C279.52 43.5271 279.301 43.6686 278.994 43.6686 277.37 43.6686 276.406 42.0871 276.099 38.92 275.969 37.71 275.956 36.4886 276.06 35.2529L277.064 22.7829C276.114 26.2586 275.164 29.7329 274.214 33.2071 272.467 38.6643 270.759 41.3914 269.091 41.3914 268.346 41.3914 267.576 40.9157 266.779 39.9629 266.139 39.2429 265.65 38.4457 265.317 37.57 264.52 35.5357 263.697 32.7186 262.85 29.1143 262.21 26.2314 261.553 23.3614 260.887 20.5043L260.656 21.0829C260.166 25.8443 259.96 29.2557 260.037 31.3143L260.423 40.1557C260.474 41.0814 260.784 41.5843 261.35 41.6614 261.376 42.3557 260.756 42.7029 259.497 42.7029 258.337 42.7029 257.76 40.58 257.76 36.3329 257.76 34.4014 257.86 31.5257 258.066 27.7043 258.273 23.88 258.376 21.0057 258.376 19.0743 258.376 18.6629 258.339 18.34 258.26 18.1086 258.184 17.8771 258.144 17.7357 258.144 17.6843 258.144 16.68 259.176 16.1771 261.234 16.1771 261.621 16.1771 262.084 16.4471 262.624 16.9886 262.703 17.7871 262.819 18.97 262.971 20.5386 263.254 22.8057 264.013 26.1 265.249 30.4229 266.741 35.7271 267.966 38.3771 268.919 38.3771 270.127 38.3771 271.451 35.9586 272.894 31.1171 273.794 28.0043 274.516 24.9143 275.057 21.8529 275.39 20.8743 275.816 19.4857 276.331 17.6829 276.641 16.5229 277.529 15.9443 278.996 15.9443 279.33 15.9443 279.664 16.0343 279.999 16.2143 280.333 16.3943 280.499 16.64 280.499 16.95Z" fill="#95C13D" transform="matrix(1.00254 0 0 1 13 13)"/><path d="M294.437 43.7457C294.437 44.1043 294.154 44.2857 293.587 44.2857 292.969 44.2857 292.597 44.0271 292.469 43.5143 292.441 43.4357 292.43 42.9357 292.43 42.0071 292.43 41.75 292.393 41.5443 292.314 41.3886 290.873 42.4443 289.314 42.9714 287.643 42.9714 286.483 42.9714 285.363 42.6486 284.281 42.0057 283.047 41.2843 282.429 40.3843 282.429 39.3029 282.429 38.2486 283.163 37.2171 284.63 36.2129 285.969 35.2871 287.203 34.8243 288.336 34.8243L292.16 34.8243C292.313 34.67 292.391 34.3986 292.391 34.0129 292.391 32.29 292.247 30.9886 291.966 30.1143 291.504 28.6471 290.589 27.9143 289.223 27.9143 288.244 27.9143 287.346 28.5314 286.52 29.7671 285.774 30.9 285.403 31.9814 285.403 33.0114 285.403 33.0629 285.403 33.14 285.403 33.2429 285.403 33.3457 285.403 33.41 285.403 33.4371 285.403 33.6429 285.3 33.7443 285.093 33.7443 284.833 33.7443 284.553 33.5914 284.243 33.2829 283.933 32.9729 283.78 32.7029 283.78 32.4729 283.78 31.7514 283.996 30.8443 284.437 29.75 284.874 28.6571 285.35 27.8257 285.864 27.26 286.507 26.5657 287.306 26.2186 288.257 26.2186 289.726 26.2186 291.079 26.6814 292.313 27.6086 293.624 28.6129 294.296 29.8243 294.32 31.2386L294.437 43.7457ZM292.391 37.6057C292.391 36.5771 291.591 36.0614 289.997 36.0614 288.736 36.0614 287.627 36.28 286.677 36.7186 285.466 37.2843 284.861 38.1329 284.861 39.2657 284.861 39.96 285.184 40.5 285.827 40.8886 286.367 41.2229 287.011 41.39 287.759 41.39 288.864 41.39 289.913 41.03 290.906 40.31 291.897 39.5886 292.391 38.6871 292.391 37.6057Z" fill="#95C13D" transform="matrix(1.00254 0 0 1 13 13)"/><path d="M309.494 42.82C309.347 43.1014 309.143 43.2443 308.876 43.2443 308.607 43.2443 308.171 43.0629 307.563 42.7029L307.563 42.3943C307.563 42.1629 307.563 41.8157 307.563 41.3514 307.563 40.89 307.563 40.5543 307.563 40.35 307.563 31.8029 306.5 27.5286 304.374 27.5286 303.707 27.5286 302.991 28.02 302.221 28.9971 300.274 31.4157 299.301 34.4657 299.301 38.1457 299.301 38.6371 299.371 39.35 299.514 40.2886 299.656 41.2286 299.724 41.9443 299.724 42.4314 299.724 42.8186 299.463 43.0114 298.94 43.0114 297.946 43.0114 297.447 42.2 297.447 40.5786L297.447 31.8143C297.447 31.5843 297.46 31.2486 297.484 30.8129 297.51 30.3743 297.524 30.04 297.524 29.8086 297.524 29.4743 297.479 28.9857 297.387 28.3414 297.297 27.6986 297.251 27.2229 297.251 26.9129 297.251 26.7057 297.411 26.4686 297.734 26.1986 298.057 25.93 298.307 25.7929 298.487 25.7929 298.819 25.7929 299.129 25.9743 299.413 26.3343 299.334 28.0086 299.297 28.9857 299.297 29.2686 299.297 29.6557 299.31 30.0271 299.334 30.3886 299.567 30.31 299.874 29.8857 300.261 29.1143 300.749 28.1357 301.161 27.4671 301.497 27.1071 302.113 26.3857 302.823 26.0243 303.619 26.0243 303.927 26.0243 304.393 26.1414 305.009 26.3729 306.4 26.8871 307.389 27.7371 307.983 28.92 308.986 30.9529 309.489 33.6443 309.489 36.9886L309.489 42.82Z" fill="#95C13D" transform="matrix(1.00254 0 0 1 13 13)"/><path d="M314.823 27.5286C314.823 27.9929 314.711 28.6886 314.494 29.6143 314.276 30.5414 314.167 31.2371 314.167 31.7L314.167 40.2329C314.167 40.7986 314.296 41.5714 314.553 42.55 314.45 42.7557 314.309 42.8586 314.129 42.8586 312.869 42.8586 312.239 42.2529 312.239 41.0429L312.239 26.8729C312.571 26.6929 312.894 26.6029 313.204 26.6029 313.513 26.6029 313.834 26.6929 314.169 26.8729 314.604 27.0543 314.823 27.2729 314.823 27.5286ZM315.557 21.7371C315.557 22.6129 315.144 23.0514 314.32 23.0514 313.833 23.0514 313.38 22.8714 312.971 22.51 312.559 22.15 312.353 21.7371 312.353 21.2757 312.353 20.4014 312.79 19.9614 313.664 19.9614 314.179 19.9614 314.623 20.13 314.997 20.4657 315.369 20.7986 315.557 21.2229 315.557 21.7371Z" fill="#95C13D" transform="matrix(1.00254 0 0 1 13 13)"/><path d="M320.343 42.2386C320.343 42.9086 319.981 43.2429 319.263 43.2429 318.129 43.2429 317.576 40.9129 317.601 36.2529L317.717 18.9171C317.717 18.6357 317.68 18.23 317.601 17.7 317.523 17.1743 317.486 16.78 317.486 16.5229 317.973 16.1629 318.386 15.9829 318.721 15.9829 319.081 15.9829 319.441 16.1129 319.803 16.3686 320.163 16.6271 320.343 16.9357 320.343 17.2957 320.343 17.5543 320.279 17.8871 320.15 18.2986 319.994 18.8129 319.903 19.1357 319.879 19.2643 319.569 21.0157 319.417 23.4614 319.417 26.6 319.417 31.6729 319.404 34.1186 319.38 33.9371 319.456 37.1029 319.66 39.4857 319.996 41.08 319.996 41.1586 320.053 41.3314 320.171 41.6014 320.286 41.8729 320.343 42.0857 320.343 42.2386Z" fill="#95C13D" transform="matrix(1.00254 0 0 1 13 13)"/><path d="M333.973 43.7457C333.973 44.1043 333.689 44.2857 333.123 44.2857 332.503 44.2857 332.133 44.0271 332.004 43.5143 331.976 43.4357 331.964 42.9357 331.964 42.0071 331.964 41.75 331.927 41.5443 331.849 41.3886 330.409 42.4443 328.85 42.9714 327.177 42.9714 326.019 42.9714 324.897 42.6486 323.817 42.0057 322.583 41.2843 321.964 40.3843 321.964 39.3029 321.964 38.2486 322.699 37.2171 324.166 36.2129 325.503 35.2871 326.737 34.8243 327.871 34.8243L331.694 34.8243C331.847 34.67 331.926 34.3986 331.926 34.0129 331.926 32.29 331.781 30.9886 331.501 30.1143 331.039 28.6471 330.123 27.9143 328.759 27.9143 327.78 27.9143 326.881 28.5314 326.056 29.7671 325.31 30.9 324.937 31.9814 324.937 33.0114 324.937 33.0629 324.937 33.14 324.937 33.2429 324.937 33.3457 324.937 33.41 324.937 33.4371 324.937 33.6429 324.834 33.7443 324.629 33.7443 324.369 33.7443 324.087 33.5914 323.777 33.2829 323.469 32.9729 323.316 32.7029 323.316 32.4729 323.316 31.7514 323.531 30.8443 323.971 29.75 324.41 28.6571 324.884 27.8257 325.4 27.26 326.043 26.5657 326.84 26.2186 327.793 26.2186 329.26 26.2186 330.614 26.6814 331.847 27.6086 333.16 28.6129 333.831 29.8243 333.856 31.2386L333.973 43.7457ZM331.926 37.6057C331.926 36.5771 331.126 36.0614 329.533 36.0614 328.27 36.0614 327.163 36.28 326.213 36.7186 325 37.2843 324.397 38.1329 324.397 39.2657 324.397 39.96 324.719 40.5 325.363 40.8886 325.903 41.2229 326.546 41.39 327.293 41.39 328.399 41.39 329.449 41.03 330.44 40.31 331.43 39.5886 331.926 38.6871 331.926 37.6057Z" fill="#95C13D" transform="matrix(1.00254 0 0 1 13 13)"/></g></svg>